<svg version="1.1" xmlns="http://www.w3.org/2000/svg" xmlns:xlink="http://www.w3.org/1999/xlink" width="64px" height="64px" viewBox="0,0,256,256">
<defs>
<linearGradient x1="32" y1="8" x2="32" y2="56.51" gradientUnits="userSpaceOnUse" id="color-1">
<stop offset="0" stop-color="#ffe29f"></stop><stop offset="1" stop-color="#ff719a">
</stop>
</linearGradient>
<linearGradient x1="20" y1="8" x2="20" y2="56.51" gradientUnits="userSpaceOnUse" id="color-2">
<stop offset="0" stop-color="#ffe29f"></stop>
<stop offset="1" stop-color="#ff719a"></stop>
</linearGradient>
<linearGradient x1="22" y1="8" x2="22" y2="56.51" gradientUnits="userSpaceOnUse" id="color-3">
<stop offset="0" stop-color="#ffe29f"></stop>
<stop offset="1" stop-color="#ff719a"></stop>
</linearGradient>
<linearGradient x1="52" y1="8" x2="52" y2="56.51" gradientUnits="userSpaceOnUse" id="color-4">
<stop offset="0" stop-color="#ffe29f"></stop>
<stop offset="1" stop-color="#ff719a"></stop>
</linearGradient>
<linearGradient x1="47" y1="8" x2="47" y2="56.51" gradientUnits="userSpaceOnUse" id="color-5">
<stop offset="0" stop-color="#ffe29f"></stop>
<stop offset="1" stop-color="#ff719a"></stop>
</linearGradient>
<linearGradient x1="10" y1="30.625" x2="10" y2="43.635" gradientUnits="userSpaceOnUse" id="color-6">
<stop offset="0" stop-color="#ffffff"></stop><stop offset="1" stop-color="#ffe1ea"></stop>
</linearGradient></defs><g fill-opacity="0" fill="#dddddd" fill-rule="nonzero" stroke="none" stroke-width="1" stroke-linecap="butt" stroke-linejoin="miter" stroke-miterlimit="10" stroke-dasharray="" stroke-dashoffset="0" font-family="none" font-weight="none" font-size="none" text-anchor="none" style="mix-blend-mode: normal"><path d="M0,256v-256h256v256z" id="bgRectangle"></path></g><g fill="none" fill-rule="nonzero" stroke="none" stroke-width="1" stroke-linecap="butt" stroke-linejoin="miter" stroke-miterlimit="10" stroke-dasharray="" stroke-dashoffset="0" font-family="none" font-weight="none" font-size="none" text-anchor="none" style="mix-blend-mode: normal"><g transform="scale(4,4)"><path d="M38,55c-2.206,0 -4,-1.794 -4,-4v-14h4.018l-5.21,-7.58c-0.363,-0.535 -1.252,-0.535 -1.615,0l-5.199,7.647l4.006,-0.067v14c0,2.206 -1.794,4 -4,4c-2.206,0 -4,-1.794 -4,-4v-4h-9c-5.514,0 -10,-4.486 -10,-10c0,-5.043 3.752,-9.226 8.611,-9.904c-0.406,-1.323 -0.611,-2.696 -0.611,-4.096c0,-7.72 6.28,-14 14,-14c5.831,0 10.993,3.616 13.051,8.965c1.712,-1.277 3.775,-1.965 5.949,-1.965c5.514,0 10,4.486 10,10c0,1.072 -0.17,2.119 -0.506,3.127c4.25,0.717 7.506,4.433 7.506,8.873c0,4.963 -4.037,9 -9,9h-10v4c0,2.206 -1.794,4 -4,4zM36,39v12c0,1.103 0.897,2 2,2c1.103,0 2,-0.897 2,-2v-6h12c3.859,0 7,-3.141 7,-7c0,-3.834 -3.12,-6.973 -6.955,-6.997l-1.604,-0.011l0.716,-1.436c0.559,-1.121 0.843,-2.319 0.843,-3.556c0,-4.411 -3.589,-8 -8,-8c-2.168,0 -4.199,0.857 -5.721,2.414l-1.236,1.265l-0.446,-1.712c-1.377,-5.279 -6.146,-8.967 -11.597,-8.967c-6.617,0 -12,5.383 -12,12c0,1.596 0.311,3.148 0.923,4.614l0.578,1.386h-1.501c-4.411,0 -8,3.589 -8,8c0,4.411 3.589,8 8,8h11v6c0,1.103 0.897,2 2,2c1.103,0 2,-0.897 2,-2v-12h-2.018c-0.739,0 -1.411,-0.402 -1.755,-1.051c-0.338,-0.639 -0.296,-1.407 0.111,-2.006l5.199,-7.648c0.553,-0.811 1.473,-1.295 2.463,-1.295c0.99,0 1.91,0.484 2.462,1.295l5.199,7.647c0.407,0.6 0.449,1.368 0.111,2.007c-0.343,0.649 -1.015,1.051 -1.754,1.051z" fill="url(#color-1)"></path><path d="M17,23h-2c0,-5.514 4.486,-10 10,-10v2c-4.411,0 -8,3.589 -8,8z" fill="url(#color-2)"></path><path d="M21,23h-2c0,-3.309 2.691,-6 6,-6v2c-2.206,0 -4,1.794 -4,4z" fill="url(#color-3)"></path><path d="M52,43c-2.757,0 -5,-2.243 -5,-5c0,-2.757 2.243,-5 5,-5c2.757,0 5,2.243 5,5c0,2.757 -2.243,5 -5,5zM52,35c-1.654,0 -3,1.346 -3,3c0,1.654 1.346,3 3,3c1.654,0 3,-1.346 3,-3c0,-1.654 -1.346,-3 -3,-3z" fill="url(#color-4)"></path>
<path d="M50,26h-2c0,-2.206 -1.794,-4 -4,-4v-2c3.309,0 6,2.691 6,6z" fill="url(#color-5)"></path>
<path d="M13,43c-3.314,0 -6,-2.686 -6,-6c0,-3.314 2.686,-6 6,-6z" fill="url(#color-6)"></path></g></g></svg>